<svg width="144" height="20" viewBox="0 0 144 20" fill="none" xmlns="http://www.w3.org/2000/svg">
<g clip-path="url(#clip0_248_3253)">
<path d="M23.5332 14.963V5.41663H25.4955V6.53974H25.8064C25.9877 6.2041 26.2792 5.90718 26.6807 5.649C27.0822 5.39081 27.6262 5.26172 28.3127 5.26172C29.0251 5.26172 29.595 5.41018 30.0224 5.70709C30.4628 5.99109 30.7931 6.35901 31.0133 6.81083H31.3241C31.5443 6.37192 31.8616 6.004 32.2761 5.70709C32.7035 5.41018 33.3058 5.26172 34.083 5.26172C34.7047 5.26172 35.2552 5.39081 35.7344 5.649C36.2136 5.89427 36.5957 6.26864 36.8807 6.77211C37.1656 7.26266 37.3081 7.87585 37.3081 8.61168V14.963H35.307V8.76659C35.307 8.18567 35.1451 7.7403 34.8213 7.43048C34.5104 7.10775 34.0635 6.94638 33.4807 6.94638C32.859 6.94638 32.3603 7.14647 31.9847 7.54666C31.6091 7.94685 31.4213 8.52131 31.4213 9.27005V14.963H29.4201V8.76659C29.4201 8.18567 29.2582 7.7403 28.9344 7.43048C28.6235 7.10775 28.1767 6.94638 27.5938 6.94638C26.9721 6.94638 26.4734 7.14647 26.0978 7.54666C25.7222 7.94685 25.5344 8.52131 25.5344 9.27005V14.963H23.5332Z" fill="#152700"/>
<path d="M43.8064 15.2341C42.8349 15.2341 41.9865 15.034 41.2612 14.6339C40.5359 14.2208 39.966 13.6463 39.5515 12.9105C39.15 12.1617 38.9492 11.2968 38.9492 10.3157V10.0833C38.9492 9.0893 39.15 8.22438 39.5515 7.48855C39.953 6.73981 40.51 6.16535 41.2224 5.76516C41.9477 5.35206 42.7831 5.14551 43.7286 5.14551C44.6483 5.14551 45.4513 5.35206 46.1378 5.76516C46.8372 6.16535 47.3812 6.7269 47.7698 7.44982C48.1584 8.17274 48.3526 9.0183 48.3526 9.9865V10.7417H40.9892C41.0151 11.5808 41.2936 12.2521 41.8246 12.7556C42.3686 13.2461 43.0422 13.4914 43.8452 13.4914C44.5965 13.4914 45.1599 13.3236 45.5355 12.9879C45.9241 12.6523 46.222 12.265 46.4292 11.8261L48.0806 12.6781C47.8993 13.0396 47.6338 13.4204 47.2841 13.8206C46.9473 14.2208 46.5005 14.5564 45.9435 14.8275C45.3865 15.0986 44.6742 15.2341 43.8064 15.2341ZM41.0086 9.21194H46.3126C46.2608 8.48902 46.0018 7.92747 45.5355 7.52728C45.0692 7.11418 44.4605 6.90763 43.7092 6.90763C42.958 6.90763 42.3427 7.11418 41.8635 7.52728C41.3972 7.92747 41.1123 8.48902 41.0086 9.21194Z" fill="#152700"/>
<path d="M49.9844 14.963V5.41663H51.9467V6.53974H52.2576C52.4389 6.2041 52.7304 5.90718 53.1319 5.649C53.5334 5.39081 54.0774 5.26172 54.7639 5.26172C55.4763 5.26172 56.0462 5.41018 56.4736 5.70709C56.914 5.99109 57.2443 6.35901 57.4645 6.81083H57.7753C57.9955 6.37192 58.3128 6.004 58.7273 5.70709C59.1547 5.41018 59.757 5.26172 60.5342 5.26172C61.1559 5.26172 61.7064 5.39081 62.1856 5.649C62.6648 5.89427 63.0469 6.26864 63.3319 6.77211C63.6168 7.26266 63.7593 7.87585 63.7593 8.61168V14.963H61.7582V8.76659C61.7582 8.18567 61.5963 7.7403 61.2725 7.43048C60.9616 7.10775 60.5147 6.94638 59.9319 6.94638C59.3102 6.94638 58.8115 7.14647 58.4359 7.54666C58.0603 7.94685 57.8725 8.52131 57.8725 9.27005V14.963H55.8713V8.76659C55.8713 8.18567 55.7094 7.7403 55.3856 7.43048C55.0747 7.10775 54.6279 6.94638 54.045 6.94638C53.4233 6.94638 52.9246 7.14647 52.549 7.54666C52.1734 7.94685 51.9856 8.52131 51.9856 9.27005V14.963H49.9844Z" fill="#152700"/>
<path d="M70.3527 15.2341C69.3942 15.2341 68.5394 15.0405 67.7881 14.6532C67.0498 14.253 66.467 13.685 66.0396 12.9492C65.6121 12.2134 65.3984 11.342 65.3984 10.3351V10.0446C65.3984 9.03767 65.6121 8.17274 66.0396 7.44982C66.467 6.71399 67.0498 6.14599 67.7881 5.7458C68.5394 5.34561 69.3942 5.14551 70.3527 5.14551C71.3112 5.14551 72.166 5.34561 72.9173 5.7458C73.6685 6.14599 74.2578 6.71399 74.6853 7.44982C75.1127 8.17274 75.3264 9.03767 75.3264 10.0446V10.3351C75.3264 11.342 75.1127 12.2134 74.6853 12.9492C74.2578 13.685 73.6685 14.253 72.9173 14.6532C72.166 15.0405 71.3112 15.2341 70.3527 15.2341ZM70.3527 13.4527C71.2335 13.4527 71.9458 13.1751 72.4898 12.62C73.0468 12.052 73.3253 11.271 73.3253 10.277V10.1027C73.3253 9.10867 73.0533 8.33411 72.5093 7.77901C71.9653 7.211 71.2464 6.927 70.3527 6.927C69.4849 6.927 68.7725 7.211 68.2156 7.77901C67.6716 8.33411 67.3996 9.10867 67.3996 10.1027V10.277C67.3996 11.271 67.6716 12.052 68.2156 12.62C68.7725 13.1751 69.4849 13.4527 70.3527 13.4527Z" fill="#152700"/>
<path d="M77.041 14.963V5.41666H79.0033V6.53977H79.3141C79.4696 6.13958 79.7156 5.84912 80.0524 5.66839C80.4021 5.47475 80.8296 5.37793 81.3347 5.37793H82.481V7.17878H81.257C80.6094 7.17878 80.0783 7.35951 79.6638 7.72097C79.2494 8.06952 79.0421 8.61171 79.0421 9.34754V14.963H77.041Z" fill="#152700"/>
<path d="M84.8843 18.8362V17.0935H90.2271C90.5898 17.0935 90.7711 16.8998 90.7711 16.5126V13.5692H90.4603C90.3437 13.8274 90.1624 14.0792 89.9163 14.3244C89.6831 14.5568 89.3658 14.7504 88.9643 14.9053C88.5627 15.0603 88.0576 15.1377 87.4488 15.1377C86.7235 15.1377 86.0759 14.9763 85.506 14.6536C84.9361 14.3309 84.4892 13.8726 84.1654 13.2788C83.8416 12.6849 83.6797 11.9814 83.6797 11.1681V5.41699H85.6808V11.0132C85.6808 11.8394 85.8881 12.4526 86.3026 12.8528C86.717 13.24 87.2934 13.4337 88.0317 13.4337C88.8477 13.4337 89.5018 13.1626 89.994 12.6204C90.4991 12.0782 90.7517 11.2907 90.7517 10.258V5.41699H92.7528V16.9192C92.7528 17.5001 92.578 17.9648 92.2283 18.3134C91.8915 18.662 91.4252 18.8362 90.8294 18.8362H84.8843Z" fill="#152700"/>
<path d="M96.14 15.2344C95.6867 15.2344 95.3046 15.086 94.9937 14.7891C94.6958 14.4922 94.5469 14.1113 94.5469 13.6466C94.5469 13.1819 94.6958 12.8075 94.9937 12.5235C95.3046 12.2266 95.6867 12.0781 96.14 12.0781C96.5934 12.0781 96.969 12.2266 97.2669 12.5235C97.5777 12.8204 97.7332 13.1948 97.7332 13.6466C97.7332 14.1113 97.5777 14.4922 97.2669 14.7891C96.969 15.086 96.5934 15.2344 96.14 15.2344Z" fill="#152700"/>
<path d="M103.451 15.2341C102.233 15.2341 101.223 14.963 100.42 14.4209C99.6169 13.8787 99.1247 13.0589 98.9434 11.9616L100.808 11.5163C100.912 12.0455 101.087 12.4651 101.333 12.7749C101.579 13.0847 101.883 13.3042 102.246 13.4333C102.622 13.5624 103.023 13.6269 103.451 13.6269C104.085 13.6269 104.571 13.5043 104.908 13.259C105.257 13.0137 105.432 12.6975 105.432 12.3102C105.432 11.9229 105.27 11.6389 104.947 11.4582C104.623 11.2774 104.144 11.129 103.509 11.0128L102.848 10.8966C102.201 10.7804 101.611 10.6126 101.08 10.3932C100.549 10.1737 100.128 9.87031 99.8177 9.48304C99.5068 9.09576 99.3514 8.59875 99.3514 7.99201C99.3514 7.08836 99.6881 6.39126 100.361 5.90071C101.035 5.39725 101.929 5.14551 103.043 5.14551C104.118 5.14551 104.998 5.39079 105.685 5.88134C106.384 6.35899 106.838 7.01091 107.045 7.8371L105.18 8.35993C105.063 7.77901 104.817 7.37237 104.441 7.14C104.066 6.89472 103.6 6.77209 103.043 6.77209C102.499 6.77209 102.071 6.87536 101.76 7.08191C101.449 7.27555 101.294 7.5531 101.294 7.91456C101.294 8.30184 101.443 8.58584 101.741 8.76657C102.052 8.9473 102.466 9.08285 102.984 9.17321L103.664 9.2894C104.351 9.40558 104.979 9.56695 105.549 9.7735C106.119 9.98004 106.566 10.277 106.889 10.6642C107.226 11.0515 107.395 11.5679 107.395 12.2134C107.395 13.1686 107.038 13.9109 106.326 14.4402C105.614 14.9695 104.655 15.2341 103.451 15.2341Z" fill="#152700"/>
<path d="M112.343 14.9634C111.76 14.9634 111.294 14.7892 110.944 14.4406C110.607 14.0921 110.439 13.6273 110.439 13.0464V7.10172H107.797V5.41706H110.439V2.26074H112.44V5.41706H115.296V7.10172H112.44V12.6979C112.44 13.0851 112.622 13.2788 112.984 13.2788H114.985V14.9634H112.343Z" fill="#152700"/>
<path d="M121.018 15.2341C120.059 15.2341 119.204 15.0405 118.453 14.6532C117.715 14.253 117.132 13.685 116.704 12.9492C116.277 12.2134 116.062 11.342 116.062 10.3351V10.0446C116.062 9.03767 116.277 8.17274 116.704 7.44982C117.132 6.71399 117.715 6.14599 118.453 5.7458C119.204 5.34561 120.059 5.14551 121.018 5.14551C121.976 5.14551 122.831 5.34561 123.582 5.7458C124.333 6.14599 124.923 6.71399 125.35 7.44982C125.778 8.17274 125.991 9.03767 125.991 10.0446V10.3351C125.991 11.342 125.778 12.2134 125.35 12.9492C124.923 13.685 124.333 14.253 123.582 14.6532C122.831 15.0405 121.976 15.2341 121.018 15.2341ZM121.018 13.4527C121.898 13.4527 122.611 13.1751 123.155 12.62C123.712 12.052 123.99 11.271 123.99 10.277V10.1027C123.99 9.10867 123.718 8.33411 123.174 7.77901C122.63 7.211 121.911 6.927 121.018 6.927C120.15 6.927 119.437 7.211 118.88 7.77901C118.336 8.33411 118.064 9.10867 118.064 10.1027V10.277C118.064 11.271 118.336 12.052 118.88 12.62C119.437 13.1751 120.15 13.4527 121.018 13.4527Z" fill="#152700"/>
<path d="M127.705 14.963V5.41666H129.667V6.53977H129.978C130.133 6.13958 130.379 5.84912 130.716 5.66839C131.066 5.47475 131.493 5.37793 131.998 5.37793H133.145V7.17878H131.921C131.273 7.17878 130.742 7.35951 130.327 7.72097C129.913 8.06952 129.706 8.61171 129.706 9.34754V14.963H127.705Z" fill="#152700"/>
<path d="M138.49 15.2341C137.519 15.2341 136.67 15.034 135.945 14.6339C135.22 14.2208 134.65 13.6463 134.235 12.9105C133.834 12.1617 133.633 11.2968 133.633 10.3157V10.0833C133.633 9.0893 133.834 8.22438 134.235 7.48855C134.637 6.73981 135.194 6.16535 135.906 5.76516C136.631 5.35206 137.467 5.14551 138.412 5.14551C139.332 5.14551 140.135 5.35206 140.822 5.76516C141.521 6.16535 142.065 6.7269 142.454 7.44982C142.842 8.17274 143.036 9.0183 143.036 9.9865V10.7417H135.673C135.699 11.5808 135.977 12.2521 136.508 12.7556C137.052 13.2461 137.726 13.4914 138.529 13.4914C139.28 13.4914 139.844 13.3236 140.219 12.9879C140.608 12.6523 140.906 12.265 141.113 11.8261L142.764 12.6781C142.583 13.0396 142.318 13.4204 141.968 13.8206C141.631 14.2208 141.184 14.5564 140.627 14.8275C140.07 15.0986 139.358 15.2341 138.49 15.2341ZM135.692 9.21194H140.996C140.945 8.48902 140.686 7.92747 140.219 7.52728C139.753 7.11418 139.144 6.90763 138.393 6.90763C137.642 6.90763 137.027 7.11418 136.547 7.52728C136.081 7.92747 135.796 8.48902 135.692 9.21194Z" fill="#152700"/>
<path fill-rule="evenodd" clip-rule="evenodd" d="M17.3778 4.99914V14.9991L8.68974 20L0 14.9991V4.99914L8.68974 0L17.3778 4.99914ZM1.70414 14.021L8.68974 18.0402L8.75356 10.0378L1.70414 5.98075V14.021ZM5.19694 5.98075L10.437 8.99605V15.0249L12.1825 16.0306V7.99209L5.19694 3.97112V5.98075ZM8.68974 3.9694L13.9298 6.9847V13.0136L15.6753 14.0193V5.97903L8.68974 1.95977V3.9694Z" fill="#152700"/>
</g>
<defs>
<clipPath id="clip0_248_3253">
<rect width="144" height="20" fill="white"/>
</clipPath>
</defs>
</svg>
